<svg width="16" height="17" viewBox="0 0 16 17" fill="none" xmlns="http://www.w3.org/2000/svg">
<path fill-rule="evenodd" clip-rule="evenodd" d="M9.07799 11.78C6.41473 11.7997 4.23982 9.65657 4.22019 6.99331C4.20057 4.33005 6.34366 2.15514 9.00692 2.13552C11.6702 2.11589 13.8451 4.25898 13.8647 6.92224C13.8843 9.5855 11.7412 11.7604 9.07799 11.78ZM9.09335 13.8647C5.27878 13.8928 2.16368 10.8232 2.13557 7.00867C2.10746 3.1941 5.17699 0.0790026 8.99156 0.0508944C12.8061 0.0227862 15.9212 3.09232 15.9493 6.90688C15.9774 10.7214 12.9079 13.8365 9.09335 13.8647Z" fill="#282A32"/>
<path d="M5.65919 12.1889C5.86845 11.9913 5.87787 11.6614 5.68024 11.4522L5.08382 10.8207C4.88619 10.6114 4.55634 10.602 4.34708 10.7996L0.378739 14.5475C0.16948 14.7451 0.160056 15.075 0.35769 15.2843L0.954103 15.9158C1.15174 16.125 1.48159 16.1344 1.69085 15.9368L5.65919 12.1889Z" fill="#282A32"/>
</svg>
