<svg width="22" height="22" viewBox="0 0 22 22" fill="none" xmlns="http://www.w3.org/2000/svg">
<path fill-rule="evenodd" clip-rule="evenodd" d="M18.7606 16.4676C19.8822 14.8889 20.5417 12.959 20.5417 10.875C20.5417 5.53625 16.2138 1.20833 10.875 1.20833C5.53625 1.20833 1.20833 5.53625 1.20833 10.875C1.20833 12.9596 1.86819 14.8901 2.99043 16.469C5.23249 15.2242 7.95302 14.5 10.8768 14.5C13.7995 14.5 16.519 15.2237 18.7606 16.4676ZM17.987 17.4222C15.9678 16.344 13.5215 15.7083 10.8768 15.7083C8.23108 15.7083 5.78385 16.3445 3.76423 17.4235C5.53069 19.3406 8.06258 20.5417 10.875 20.5417C13.6881 20.5417 16.2205 19.3401 17.987 17.4222ZM10.875 21.75C16.8811 21.75 21.75 16.8811 21.75 10.875C21.75 4.8689 16.8811 0 10.875 0C4.8689 0 0 4.8689 0 10.875C0 16.8811 4.8689 21.75 10.875 21.75ZM10.875 10.875C12.877 10.875 14.5 9.25203 14.5 7.25C14.5 5.24797 12.877 3.625 10.875 3.625C8.87297 3.625 7.25 5.24797 7.25 7.25C7.25 9.25203 8.87297 10.875 10.875 10.875ZM10.875 12.0833C13.5444 12.0833 15.7083 9.91938 15.7083 7.25C15.7083 4.58062 13.5444 2.41667 10.875 2.41667C8.20562 2.41667 6.04167 4.58062 6.04167 7.25C6.04167 9.91938 8.20562 12.0833 10.875 12.0833Z" fill="#282A32"/>
</svg>
